Coordinates
version=1
nRows=7
nColumns=33
inDegrees=yes

Units are S.I. units (second, meters, Newtons, ...)
Angles are in degrees.

endheader
time	ground_thorax_rot_x	ground_thorax_rot_y	ground_thorax_rot_z	ground_thorax_tx	ground_thorax_ty	ground_thorax_tz	clav_prot_r	clav_elev_r	scapula_abduction_r	scapula_elevation_r	scapula_upward_rot_r	scapula_winging_r	shoulder_elv_r	plane_of_elev_r	axial_rot_r	elbow_flexion_r	pro_sup_r	wrist_flex_r	wrist_dev_r	clav_prot_l	clav_elev_l	scapula_abduction_l	scapula_elevation_l	scapula_upward_rot_l	scapula_winging_l	shoulder_elv_l	plane_of_elev_l	axial_rot_l	elbow_flexion_l	pro_sup_l	wrist_flex_l	wrist_dev_l
      6.34000000	    -29.17172378	    -29.57295724	     40.24520938	    -94.56465626	    855.68335332	    -47.72955535	     27.32072772	    -45.00000000	     41.29941651	    -45.00000000	    -45.00000000	  -2627.18593593	  -2261.73541854	    158.22548525	     32.28248311	   3239.04097243	   -203.12726674	     14.33072508	     14.72269511	     -0.73273620	     33.29011530	    -33.11927222	    -45.00000000	    -45.00000000	  -3150.36638668	  -2966.83090109	    133.30170868	   -107.55912931	    347.84120764	     31.92679484	     15.12368507	    -18.11950331
      6.35000000	    -29.30930162	    -29.37673697	     39.99800830	    -95.46401345	    855.88481432	    -47.73981040	     27.28016485	    -45.00000000	     41.25238498	    -45.00000000	    -45.00000000	  -2627.27499853	  -2261.68779734	    158.20898159	     32.44426085	   3238.95101174	   -203.19260066	     14.40535643	     14.80579573	     -0.66471829	     33.28226861	    -33.05975434	    -45.00000000	    -45.00000000	  -3150.40977810	  -2966.81234503	    133.23358526	   -107.69591957	    347.91391366	     31.91565178	     14.99035654	    -18.05784793
      6.36000000	    -29.33790638	    -29.31052050	     39.93414243	    -96.34035745	    856.07051593	    -47.75746705	     27.26812227	    -45.00000000	     41.24249068	    -45.00000000	    -45.00000000	  -2627.31276212	  -2261.65990895	    158.29634972	     32.50017751	   3238.95426659	   -203.28114822	     14.55219400	     14.67426127	     -0.73513272	     33.30903901	    -33.12403882	    -45.00000000	    -45.00000000	  -3150.36170919	  -2966.85222974	    133.31706917	   -107.73911136	    347.81368817	     31.91121209	     15.15295531	    -18.24531749
      6.37000000	    -29.43432052	    -29.21318255	     39.78740372	    -97.19699246	    856.24060778	    -47.78173959	     27.29348796	    -45.00000000	     41.18839681	    -45.00000000	    -45.00000000	  -2627.36678497	  -2261.63147017	    158.28551785	     32.69633639	   3238.97606735	   -203.29999866	     14.56801598	     14.77686662	     -0.68826431	     33.26001492	    -33.10479757	    -45.00000000	    -45.00000000	  -3150.36403141	  -2966.87835453	    133.34245894	   -107.88721225	    347.87035837	     31.92160854	     14.96226444	    -18.13418887
      6.38000000	    -29.57396609	    -29.07849038	     39.54464635	    -98.03561747	    856.39459084	    -47.81149589	     27.26074377	    -45.00000000	     41.18290237	    -45.00000000	    -45.00000000	  -2627.41639263	  -2261.64796613	    158.32982015	     32.83150063	   3238.92911690	   -203.34163223	     14.74701621	     14.65451849	     -0.74980230	     33.33524443	    -33.02243001	    -45.00000000	    -45.00000000	  -3150.36447633	  -2966.85955319	    133.28829588	   -107.99775376	    347.87241282	     31.90730929	     15.12993468	    -18.39403135
      6.39000000	    -29.61602232	    -28.92128479	     39.48010664	    -98.84790788	    856.53026306	    -47.84536975	     27.27655787	    -45.00000000	     41.07841578	    -45.00000000	    -45.00000000	  -2627.51396165	  -2261.54311430	    158.33863372	     32.95840124	   3238.86433275	   -203.31886952	     14.73442785	     14.84933224	     -0.68269486	     33.22584407	    -33.08563694	    -45.00000000	    -45.00000000	  -3150.39686495	  -2966.94440336	    133.31833056	   -108.10170569	    347.88697464	     31.93913194	     14.82634929	    -18.17456326
      6.40000000	    -29.75149569	    -28.81946356	     39.22438591	    -99.64142625	    856.64875611	    -47.88254526	     27.22653235	    -45.00000000	     41.17643966	    -45.00000000	    -45.00000000	  -2627.52883956	  -2261.62774712	    158.41180938	     33.06350394	   3238.88908911	   -203.36900452	     15.02635257	     14.47229777	     -0.77579561	     33.40481004	    -32.97716623	    -45.00000000	    -45.00000000	  -3150.34165888	  -2966.84511152	    133.25922501	   -108.17072368	    347.88049469	     31.91536271	     15.25864367	    -18.68670317
